PathFileType	4	(X/Y/Z)	C:\Users\italobelli\Desktop\GitHub\PTbot_officialCBL\Personal_Results\FLX22_noisy2.trc
DataRate	CameraRate	NumFrames	NumMarkers	Units	OrigDataRate	OrigDataStartFrame	OrigNumFrames
106.125000	106.125000	29	9	m	106.125000	638	850
Frame#	Time		gu		centelbow		EpL		centpxt8		centijc7		ij		ts		aa		ai
			X1	Y1	Z1	X2	Y2	Z2	X3	Y3	Z3	X4	Y4	Z4	X5	Y5	Z5	X6	Y6	Z6	X7	Y7	Z7	X8	Y8	Z8	X9	Y9	Z9

638	6.0024	-0.077728	0.013191	0.15114	-0.00010878	-0.19342	0.24907	0.015817	-0.17308	0.26833	-0.046816	-0.15316	-0.008669	-0.046816	0.031938	-0.008669	0	0	0	-0.14235	0.031374	0.041268	-0.10932	0.036682	0.15578	-0.14907	-0.081237	0.05391
639	6.0118	-0.077707	0.012587	0.15141	-0.0021497	-0.19511	0.24862	0.013963	-0.17513	0.26795	-0.046816	-0.15316	-0.008669	-0.046816	0.031938	-0.008669	0	0	0	-0.14221	0.031382	0.041356	-0.10922	0.036266	0.15603	-0.14929	-0.081224	0.053877
640	6.0212	-0.077683	0.011979	0.15168	-0.0042233	-0.1968	0.24816	0.012075	-0.17719	0.26757	-0.046816	-0.15316	-0.008669	-0.046816	0.031938	-0.008669	0	0	0	-0.14206	0.031387	0.041461	-0.10912	0.035847	0.15628	-0.14951	-0.081211	0.05385
641	6.0306	-0.077657	0.011365	0.15196	-0.0063276	-0.19849	0.24769	0.010157	-0.17923	0.26718	-0.046816	-0.15316	-0.008669	-0.046816	0.031938	-0.008669	0	0	0	-0.14191	0.031389	0.041583	-0.109	0.035426	0.15654	-0.14974	-0.0812	0.05383
642	6.04	-0.077629	0.010748	0.15224	-0.0084606	-0.20016	0.24723	0.0082099	-0.18126	0.26678	-0.046816	-0.15316	-0.008669	-0.046816	0.031938	-0.008669	0	0	0	-0.14176	0.031387	0.041721	-0.10888	0.035003	0.15679	-0.14997	-0.081189	0.053817
643	6.0495	-0.077599	0.010127	0.15252	-0.01062	-0.20183	0.24675	0.0062351	-0.18329	0.26638	-0.046816	-0.15316	-0.008669	-0.046816	0.031938	-0.008669	0	0	0	-0.1416	0.031381	0.041875	-0.10874	0.034579	0.15705	-0.1502	-0.081179	0.05381
644	6.0589	-0.077567	0.0095034	0.15281	-0.012805	-0.20349	0.24628	0.0042349	-0.1853	0.26598	-0.046816	-0.15316	-0.008669	-0.046816	0.031938	-0.008669	0	0	0	-0.14145	0.031373	0.042043	-0.1086	0.034153	0.15731	-0.15043	-0.08117	0.053809
645	6.0683	-0.077534	0.0088773	0.15309	-0.015012	-0.20513	0.2458	0.0022109	-0.1873	0.26556	-0.046816	-0.15316	-0.008669	-0.046816	0.031938	-0.008669	0	0	0	-0.1413	0.031362	0.042225	-0.10845	0.033727	0.15757	-0.15067	-0.081162	0.053814
646	6.0777	-0.077498	0.0082494	0.15338	-0.01724	-0.20677	0.24531	0.00016516	-0.18928	0.26514	-0.046816	-0.15316	-0.008669	-0.046816	0.031938	-0.008669	0	0	0	-0.14115	0.031348	0.042421	-0.1083	0.033301	0.15783	-0.15091	-0.081154	0.053824
647	6.0872	-0.077461	0.0076203	0.15367	-0.019487	-0.20839	0.24482	-0.0019006	-0.19125	0.26472	-0.046816	-0.15316	-0.008669	-0.046816	0.031938	-0.008669	0	0	0	-0.141	0.031332	0.042629	-0.10813	0.032875	0.15809	-0.15115	-0.081146	0.053839
648	6.0966	-0.077423	0.0069906	0.15396	-0.02175	-0.20999	0.24433	-0.0039846	-0.1932	0.26429	-0.046816	-0.15316	-0.008669	-0.046816	0.031938	-0.008669	0	0	0	-0.14084	0.031313	0.042848	-0.10796	0.03245	0.15836	-0.15139	-0.081139	0.05386
649	6.106	-0.077383	0.0063607	0.15425	-0.024029	-0.21158	0.24383	-0.0060848	-0.19514	0.26386	-0.046816	-0.15316	-0.008669	-0.046816	0.031938	-0.008669	0	0	0	-0.14069	0.031292	0.043079	-0.10778	0.032025	0.15862	-0.15163	-0.081133	0.053885
650	6.1154	-0.077343	0.0057312	0.15454	-0.02632	-0.21316	0.24333	-0.0081996	-0.19705	0.26342	-0.046816	-0.15316	-0.008669	-0.046816	0.031938	-0.008669	0	0	0	-0.14054	0.031268	0.043319	-0.1076	0.031602	0.15888	-0.15187	-0.081127	0.053914
651	6.1249	-0.077301	0.0051028	0.15482	-0.028623	-0.21471	0.24282	-0.010327	-0.19894	0.26298	-0.046816	-0.15316	-0.008669	-0.046816	0.031938	-0.008669	0	0	0	-0.14039	0.031243	0.04357	-0.10741	0.031181	0.15914	-0.15212	-0.081122	0.053947
652	6.1343	-0.077258	0.0044759	0.15511	-0.030934	-0.21625	0.24231	-0.012465	-0.20081	0.26253	-0.046816	-0.15316	-0.008669	-0.046816	0.031938	-0.008669	0	0	0	-0.14024	0.031216	0.043828	-0.10722	0.030762	0.15941	-0.15236	-0.081117	0.053984
653	6.1437	-0.077214	0.0038511	0.1554	-0.033252	-0.21777	0.2418	-0.014612	-0.20266	0.26208	-0.046816	-0.15316	-0.008669	-0.046816	0.031938	-0.008669	0	0	0	-0.14009	0.031187	0.044095	-0.10703	0.030345	0.15967	-0.15261	-0.081112	0.054025
654	6.1531	-0.07717	0.003229	0.15569	-0.035576	-0.21926	0.24129	-0.016767	-0.20449	0.26163	-0.046816	-0.15316	-0.008669	-0.046816	0.031938	-0.008669	0	0	0	-0.13994	0.031156	0.044369	-0.10683	0.029931	0.15993	-0.15285	-0.081108	0.054068
655	6.1625	-0.077125	0.0026102	0.15597	-0.037902	-0.22074	0.24078	-0.018926	-0.20629	0.26117	-0.046816	-0.15316	-0.008669	-0.046816	0.031938	-0.008669	0	0	0	-0.13979	0.031124	0.044649	-0.10662	0.029521	0.16018	-0.15309	-0.081104	0.054115
656	6.172	-0.07708	0.0019951	0.15625	-0.040229	-0.22219	0.24026	-0.021089	-0.20806	0.26071	-0.046816	-0.15316	-0.008669	-0.046816	0.031938	-0.008669	0	0	0	-0.13964	0.031091	0.044935	-0.10642	0.029115	0.16044	-0.15333	-0.0811	0.054164
657	6.1814	-0.077034	0.0013844	0.15653	-0.042555	-0.22362	0.23974	-0.023254	-0.2098	0.26025	-0.046816	-0.15316	-0.008669	-0.046816	0.031938	-0.008669	0	0	0	-0.13949	0.031057	0.045226	-0.10621	0.028713	0.1607	-0.15357	-0.081097	0.054216
658	6.1908	-0.076988	0.00077853	0.15681	-0.044879	-0.22502	0.23921	-0.025418	-0.21152	0.25979	-0.046816	-0.15316	-0.008669	-0.046816	0.031938	-0.008669	0	0	0	-0.13935	0.031022	0.045521	-0.106	0.028315	0.16095	-0.15381	-0.081093	0.05427
659	6.2002	-0.076943	0.00017818	0.15708	-0.047197	-0.2264	0.23869	-0.027581	-0.2132	0.25932	-0.046816	-0.15316	-0.008669	-0.046816	0.031938	-0.008669	0	0	0	-0.1392	0.030987	0.04582	-0.10578	0.027923	0.1612	-0.15405	-0.08109	0.054325
660	6.2097	-0.076897	-0.00041615	0.15735	-0.049509	-0.22775	0.23816	-0.029739	-0.21486	0.25885	-0.046816	-0.15316	-0.008669	-0.046816	0.031938	-0.008669	0	0	0	-0.13906	0.03095	0.046121	-0.10557	0.027536	0.16145	-0.15428	-0.081087	0.054383
661	6.2191	-0.076851	-0.0010039	0.15762	-0.051812	-0.22907	0.23763	-0.031892	-0.21648	0.25837	-0.046816	-0.15316	-0.008669	-0.046816	0.031938	-0.008669	0	0	0	-0.13892	0.030913	0.046424	-0.10536	0.027154	0.16169	-0.15451	-0.081084	0.054441
662	6.2285	-0.076806	-0.0015845	0.15789	-0.054104	-0.23036	0.2371	-0.034037	-0.21806	0.2579	-0.046816	-0.15316	-0.008669	-0.046816	0.031938	-0.008669	0	0	0	-0.13877	0.030876	0.046729	-0.10515	0.026779	0.16193	-0.15474	-0.081081	0.0545
663	6.2379	-0.076761	-0.0021574	0.15814	-0.056383	-0.23162	0.23657	-0.036173	-0.21961	0.25742	-0.046816	-0.15316	-0.008669	-0.046816	0.031938	-0.008669	0	0	0	-0.13864	0.030839	0.047034	-0.10493	0.026411	0.16217	-0.15496	-0.081078	0.054561
664	6.2473	-0.076717	-0.0027221	0.1584	-0.058648	-0.23285	0.23604	-0.038297	-0.22113	0.25694	-0.046816	-0.15316	-0.008669	-0.046816	0.031938	-0.008669	0	0	0	-0.1385	0.030802	0.047338	-0.10472	0.026049	0.16241	-0.15518	-0.081075	0.054621
665	6.2568	-0.076673	-0.0032779	0.15865	-0.060895	-0.23405	0.23551	-0.040408	-0.2226	0.25647	-0.046816	-0.15316	-0.008669	-0.046816	0.031938	-0.008669	0	0	0	-0.13836	0.030764	0.047642	-0.10451	0.025695	0.16264	-0.1554	-0.081071	0.054682
666	6.2662	-0.07663	-0.0038244	0.15889	-0.063124	-0.23522	0.23497	-0.042504	-0.22404	0.25598	-0.046816	-0.15316	-0.008669	-0.046816	0.031938	-0.008669	0	0	0	-0.13823	0.030728	0.047943	-0.1043	0.025349	0.16286	-0.15561	-0.081068	0.054743
